# xmcd
#
# Track frame offsets:
#	150
#	13753
#	25792
#	39393
#	55148
#	65017
#	79838
#	94885
#	113633
#	126073
#	143398
#	157550
#	177322
#	202285
#	228005
#	246837
#	263173
#	291703
#	297000
#
# Disc length: 4211 seconds
#
# Revision: 1
# Processed by: cddbd v1.5.1PL0 Copyright (c) Steve Scherf et al.
# Submitted via: CDex 1.50Beta5
#
DISCID=06107113
DTITLE=Tokyo Ska Paradise Orchestra - Best(1989~1997)
DYEAR=2002
DGENRE=Steady
TTITLE0=スキャラバン(CARAVAN)
TTITLE1=ホリデイ
TTITLE2=ストレンジバード
TTITLE3=MONSTER ROCK
TTITLE4=君と僕
TTITLE5=セサミストリート
TTITLE6=ジャングルブギ
TTITLE7=You Are A Miracle "ナイスなオマエ"
TTITLE8=流れ星兄弟
TTITLE9=BURNING SCALE(1993 MIX)
TTITLE10=マライの鯱
TTITLE11=インターセプター
TTITLE12=Moments In Heaven
TTITLE13=Sweet G
TTITLE14=What A Wonderful World
TTITLE15=花ふぶき 〜愛だと、愛っ。〜
TTITLE16=Just A Little Bit Of Your Soul ~alternate version~
TTITLE17=STARLIGHT EXPRESS
TTITLE18=YOU DON'T KNOW(WHAT SKA IS) ~live~
EXTD=
EXTT0=
EXTT1=
EXTT2=
EXTT3=
EXTT4=
EXTT5=
EXTT6=
EXTT7=
EXTT8=
EXTT9=
EXTT10=
EXTT11=
EXTT12=
EXTT13=
EXTT14=
EXTT15=
EXTT16=
EXTT17=
EXTT18=
PLAYORDER=
